<svg width="135" height="37" viewBox="0 0 135 37" fill="none" xmlns="http://www.w3.org/2000/svg">
<rect x="0.5" y="0.5" width="134" height="36" rx="4.5" fill="#FAFAFA" stroke="#E2E2E2"/>
<path d="M36.9247 30.8636V20.3636H38.6946V21.6264H38.799C38.8918 21.4408 39.0227 21.2436 39.1918 21.0348C39.3608 20.8227 39.5895 20.642 39.8778 20.4929C40.1662 20.3404 40.5341 20.2642 40.9815 20.2642C41.5715 20.2642 42.1035 20.415 42.5774 20.7166C43.0547 21.0149 43.4325 21.4574 43.7109 22.044C43.9927 22.6274 44.1335 23.3433 44.1335 24.1918C44.1335 25.0303 43.996 25.7429 43.7209 26.3295C43.4458 26.9162 43.0713 27.3636 42.5973 27.6719C42.1233 27.9801 41.5864 28.1342 40.9865 28.1342C40.549 28.1342 40.1861 28.0613 39.8977 27.9155C39.6094 27.7696 39.3774 27.594 39.2017 27.3885C39.0294 27.1797 38.8951 26.9825 38.799 26.7969H38.7244V30.8636H36.9247ZM38.6896 24.1818C38.6896 24.6757 38.7592 25.1082 38.8984 25.4794C39.041 25.8506 39.2448 26.1406 39.5099 26.3494C39.7784 26.5549 40.1032 26.6577 40.4844 26.6577C40.8821 26.6577 41.2152 26.5516 41.4837 26.3395C41.7521 26.1241 41.9543 25.8307 42.0902 25.4595C42.2294 25.085 42.299 24.6591 42.299 24.1818C42.299 23.7079 42.2311 23.2869 42.0952 22.919C41.9593 22.5511 41.7571 22.2628 41.4886 22.054C41.2202 21.8452 40.8854 21.7408 40.4844 21.7408C40.0999 21.7408 39.7734 21.8419 39.505 22.044C39.2365 22.2462 39.0327 22.5296 38.8935 22.8942C38.7576 23.2588 38.6896 23.688 38.6896 24.1818ZM48.4457 28.1491C47.6999 28.1491 47.0536 27.9851 46.5068 27.657C45.9599 27.3288 45.5356 26.8698 45.234 26.2798C44.9357 25.6899 44.7866 25.0005 44.7866 24.2116C44.7866 23.4228 44.9357 22.7318 45.234 22.1385C45.5356 21.5452 45.9599 21.0845 46.5068 20.7564C47.0536 20.4283 47.6999 20.2642 48.4457 20.2642C49.1914 20.2642 49.8377 20.4283 50.3846 20.7564C50.9315 21.0845 51.3541 21.5452 51.6524 22.1385C51.954 22.7318 52.1048 23.4228 52.1048 24.2116C52.1048 25.0005 51.954 25.6899 51.6524 26.2798C51.3541 26.8698 50.9315 27.3288 50.3846 27.657C49.8377 27.9851 49.1914 28.1491 48.4457 28.1491ZM48.4556 26.7074C48.86 26.7074 49.198 26.5964 49.4698 26.3743C49.7416 26.1489 49.9438 25.8473 50.0764 25.4695C50.2123 25.0916 50.2802 24.6707 50.2802 24.2067C50.2802 23.7393 50.2123 23.3168 50.0764 22.9389C49.9438 22.5578 49.7416 22.2545 49.4698 22.0291C49.198 21.8037 48.86 21.6911 48.4556 21.6911C48.0413 21.6911 47.6966 21.8037 47.4215 22.0291C47.1498 22.2545 46.9459 22.5578 46.81 22.9389C46.6775 23.3168 46.6112 23.7393 46.6112 24.2067C46.6112 24.6707 46.6775 25.0916 46.81 25.4695C46.9459 25.8473 47.1498 26.1489 47.4215 26.3743C47.6966 26.5964 48.0413 26.7074 48.4556 26.7074ZM54.872 17.8182V28H53.0723V17.8182H54.872ZM57.2813 30.8636C57.036 30.8636 56.809 30.8438 56.6002 30.804C56.3947 30.7675 56.2306 30.7244 56.108 30.6747L56.5256 29.2727C56.7874 29.349 57.0211 29.3854 57.2266 29.3821C57.4321 29.3788 57.6127 29.3142 57.7685 29.1882C57.9276 29.0656 58.0618 28.8601 58.1712 28.5717L58.3253 28.1591L55.5562 20.3636H57.4652L59.2252 26.1307H59.3047L61.0696 20.3636H62.9837L59.9262 28.9247C59.7837 29.3291 59.5947 29.6754 59.3594 29.9638C59.1241 30.2554 58.8357 30.4775 58.4944 30.63C58.1563 30.7857 57.7519 30.8636 57.2813 30.8636ZM63.7486 28V17.8182H65.5484V21.6264H65.6229C65.7157 21.4408 65.8466 21.2436 66.0157 21.0348C66.1847 20.8227 66.4134 20.642 66.7018 20.4929C66.9901 20.3404 67.358 20.2642 67.8055 20.2642C68.3954 20.2642 68.9274 20.415 69.4013 20.7166C69.8786 21.0149 70.2564 21.4574 70.5349 22.044C70.8166 22.6274 70.9574 23.3433 70.9574 24.1918C70.9574 25.0303 70.8199 25.7429 70.5448 26.3295C70.2697 26.9162 69.8952 27.3636 69.4212 27.6719C68.9473 27.9801 68.4103 28.1342 67.8104 28.1342C67.3729 28.1342 67.01 28.0613 66.7216 27.9155C66.4333 27.7696 66.2013 27.594 66.0256 27.3885C65.8533 27.1797 65.719 26.9825 65.6229 26.7969H65.5185V28H63.7486ZM65.5136 24.1818C65.5136 24.6757 65.5832 25.1082 65.7224 25.4794C65.8649 25.8506 66.0687 26.1406 66.3339 26.3494C66.6023 26.5549 66.9271 26.6577 67.3083 26.6577C67.706 26.6577 68.0391 26.5516 68.3076 26.3395C68.5761 26.1241 68.7782 25.8307 68.9141 25.4595C69.0533 25.085 69.1229 24.6591 69.1229 24.1818C69.1229 23.7079 69.055 23.2869 68.9191 22.919C68.7832 22.5511 68.581 22.2628 68.3126 22.054C68.0441 21.8452 67.7093 21.7408 67.3083 21.7408C66.9238 21.7408 66.5974 21.8419 66.3289 22.044C66.0604 22.2462 65.8566 22.5296 65.7174 22.8942C65.5815 23.2588 65.5136 23.688 65.5136 24.1818ZM74.1249 28.1541C73.641 28.1541 73.2052 28.0679 72.8174 27.8956C72.4329 27.7199 72.128 27.4614 71.9026 27.12C71.6805 26.7786 71.5695 26.3577 71.5695 25.8572C71.5695 25.4264 71.649 25.0701 71.8081 24.7884C71.9672 24.5066 72.1843 24.2812 72.4594 24.1122C72.7345 23.9432 73.0444 23.8156 73.3891 23.7294C73.7371 23.6399 74.0967 23.5753 74.4679 23.5355C74.9154 23.4891 75.2783 23.4477 75.5567 23.4112C75.8351 23.3714 76.0373 23.3118 76.1632 23.2322C76.2925 23.1494 76.3571 23.0218 76.3571 22.8494V22.8196C76.3571 22.4451 76.2461 22.1551 76.024 21.9496C75.802 21.7441 75.4821 21.6413 75.0645 21.6413C74.6237 21.6413 74.274 21.7375 74.0155 21.9297C73.7603 22.1219 73.588 22.349 73.4985 22.6108L71.8181 22.3722C71.9507 21.9081 72.1694 21.5204 72.4743 21.2088C72.7793 20.8939 73.1521 20.6586 73.5929 20.5028C74.0337 20.3438 74.521 20.2642 75.0546 20.2642C75.4225 20.2642 75.7887 20.3073 76.1533 20.3935C76.5179 20.4796 76.851 20.6222 77.1526 20.821C77.4542 21.0166 77.6962 21.2834 77.8784 21.6214C78.0641 21.9595 78.1569 22.3821 78.1569 22.8892V28H76.4267V26.951H76.3671C76.2577 27.1631 76.1036 27.362 75.9047 27.5476C75.7092 27.7299 75.4623 27.8774 75.164 27.9901C74.869 28.0994 74.5226 28.1541 74.1249 28.1541ZM74.5922 26.8317C74.9535 26.8317 75.2667 26.7604 75.5319 26.6179C75.797 26.4721 76.0008 26.2798 76.1434 26.0412C76.2892 25.8026 76.3621 25.5424 76.3621 25.2607V24.3608C76.3058 24.4072 76.2096 24.4503 76.0738 24.4901C75.9412 24.5298 75.792 24.5646 75.6263 24.5945C75.4606 24.6243 75.2965 24.6508 75.1341 24.674C74.9717 24.6972 74.8309 24.7171 74.7115 24.7337C74.4431 24.7701 74.2028 24.8298 73.9907 24.9126C73.7785 24.9955 73.6112 25.1115 73.4885 25.2607C73.3659 25.4065 73.3046 25.5954 73.3046 25.8274C73.3046 26.1589 73.4256 26.4091 73.6675 26.5781C73.9095 26.7472 74.2177 26.8317 74.5922 26.8317ZM85.442 22.3821L83.8014 22.5611C83.755 22.3954 83.6738 22.2396 83.5578 22.0938C83.4451 21.9479 83.2926 21.8303 83.1004 21.7408C82.9082 21.6513 82.6728 21.6065 82.3944 21.6065C82.0199 21.6065 81.705 21.6877 81.4498 21.8501C81.1979 22.0125 81.0737 22.223 81.077 22.4815C81.0737 22.7036 81.1549 22.8842 81.3206 23.0234C81.4896 23.1626 81.768 23.277 82.1558 23.3665L83.4584 23.6449C84.1809 23.8007 84.7178 24.0476 85.0692 24.3857C85.4238 24.7237 85.6028 25.1662 85.6061 25.7131C85.6028 26.1937 85.4619 26.6179 85.1835 26.9858C84.9084 27.3504 84.5256 27.6354 84.0351 27.8409C83.5445 28.0464 82.9811 28.1491 82.3447 28.1491C81.4101 28.1491 80.6577 27.9536 80.0876 27.5625C79.5175 27.1681 79.1778 26.6196 79.0684 25.9169L80.8234 25.7479C80.903 26.0926 81.072 26.3527 81.3305 26.5284C81.589 26.7041 81.9255 26.7919 82.3398 26.7919C82.7673 26.7919 83.1103 26.7041 83.3689 26.5284C83.6307 26.3527 83.7616 26.1357 83.7616 25.8771C83.7616 25.6584 83.6771 25.4777 83.5081 25.3352C83.3424 25.1927 83.0838 25.0833 82.7325 25.0071L81.4299 24.7337C80.6975 24.5812 80.1556 24.3243 79.8042 23.9631C79.4529 23.5985 79.2789 23.1378 79.2822 22.581C79.2789 22.1103 79.4065 21.7027 79.665 21.358C79.9269 21.0099 80.2898 20.7415 80.7538 20.5526C81.2211 20.3603 81.7597 20.2642 82.3696 20.2642C83.2645 20.2642 83.9688 20.4548 84.4825 20.8359C84.9996 21.2171 85.3194 21.7325 85.442 22.3821ZM89.9108 28.1491C89.1452 28.1491 88.4839 27.9901 87.9271 27.6719C87.3736 27.3504 86.9477 26.8963 86.6494 26.3097C86.3511 25.7197 86.202 25.0253 86.202 24.2266C86.202 23.4411 86.3511 22.7517 86.6494 22.1584C86.951 21.5618 87.372 21.0978 87.9122 20.7663C88.4525 20.4316 89.0872 20.2642 89.8163 20.2642C90.287 20.2642 90.7311 20.3404 91.1487 20.4929C91.5696 20.642 91.9409 20.8741 92.2624 21.1889C92.5872 21.5038 92.8424 21.9048 93.028 22.392C93.2136 22.8759 93.3064 23.4527 93.3064 24.1222V24.674H87.0472V23.4609H91.5812C91.5779 23.1162 91.5034 22.8097 91.3575 22.5412C91.2117 22.2694 91.0079 22.0556 90.746 21.8999C90.4875 21.7441 90.1859 21.6662 89.8412 21.6662C89.4733 21.6662 89.1501 21.7557 88.8717 21.9347C88.5933 22.1103 88.3762 22.3423 88.2204 22.6307C88.068 22.9157 87.9901 23.2289 87.9868 23.5703V24.6293C87.9868 25.0734 88.068 25.4545 88.2304 25.7727C88.3928 26.0876 88.6198 26.3295 88.9115 26.4986C89.2032 26.6643 89.5445 26.7472 89.9356 26.7472C90.1975 26.7472 90.4345 26.7107 90.6466 26.6378C90.8587 26.5616 91.0427 26.4505 91.1984 26.3047C91.3542 26.1589 91.4719 25.9782 91.5514 25.7628L93.2318 25.9517C93.1258 26.3958 92.9236 26.7836 92.6253 27.1151C92.3303 27.4432 91.9525 27.6984 91.4918 27.8807C91.0311 28.0597 90.5041 28.1491 89.9108 28.1491ZM96.0687 17.8182V28H94.2689V17.8182H96.0687ZM99.5568 28.1541C99.0729 28.1541 98.637 28.0679 98.2492 27.8956C97.8648 27.7199 97.5598 27.4614 97.3345 27.12C97.1124 26.7786 97.0014 26.3577 97.0014 25.8572C97.0014 25.4264 97.0809 25.0701 97.24 24.7884C97.3991 24.5066 97.6162 24.2812 97.8913 24.1122C98.1664 23.9432 98.4763 23.8156 98.821 23.7294C99.169 23.6399 99.5286 23.5753 99.8998 23.5355C100.347 23.4891 100.71 23.4477 100.989 23.4112C101.267 23.3714 101.469 23.3118 101.595 23.2322C101.724 23.1494 101.789 23.0218 101.789 22.8494V22.8196C101.789 22.4451 101.678 22.1551 101.456 21.9496C101.234 21.7441 100.914 21.6413 100.496 21.6413C100.056 21.6413 99.7059 21.7375 99.4474 21.9297C99.1922 22.1219 99.0198 22.349 98.9303 22.6108L97.2499 22.3722C97.3825 21.9081 97.6013 21.5204 97.9062 21.2088C98.2111 20.8939 98.584 20.6586 99.0248 20.5028C99.4656 20.3438 99.9528 20.2642 100.486 20.2642C100.854 20.2642 101.221 20.3073 101.585 20.3935C101.95 20.4796 102.283 20.6222 102.584 20.821C102.886 21.0166 103.128 21.2834 103.31 21.6214C103.496 21.9595 103.589 22.3821 103.589 22.8892V28H101.859V26.951H101.799C101.69 27.1631 101.535 27.362 101.337 27.5476C101.141 27.7299 100.894 27.8774 100.596 27.9901C100.301 28.0994 99.9545 28.1541 99.5568 28.1541ZM100.024 26.8317C100.385 26.8317 100.699 26.7604 100.964 26.6179C101.229 26.4721 101.433 26.2798 101.575 26.0412C101.721 25.8026 101.794 25.5424 101.794 25.2607V24.3608C101.738 24.4072 101.642 24.4503 101.506 24.4901C101.373 24.5298 101.224 24.5646 101.058 24.5945C100.892 24.6243 100.728 24.6508 100.566 24.674C100.404 24.6972 100.263 24.7171 100.143 24.7337C99.8749 24.7701 99.6347 24.8298 99.4225 24.9126C99.2104 24.9955 99.043 25.1115 98.9204 25.2607C98.7978 25.4065 98.7365 25.5954 98.7365 25.8274C98.7365 26.1589 98.8574 26.4091 99.0994 26.5781C99.3413 26.7472 99.6496 26.8317 100.024 26.8317ZM104.918 28V17.8182H106.718V21.6264H106.792C106.885 21.4408 107.016 21.2436 107.185 21.0348C107.354 20.8227 107.583 20.642 107.871 20.4929C108.159 20.3404 108.527 20.2642 108.975 20.2642C109.565 20.2642 110.097 20.415 110.571 20.7166C111.048 21.0149 111.426 21.4574 111.704 22.044C111.986 22.6274 112.127 23.3433 112.127 24.1918C112.127 25.0303 111.989 25.7429 111.714 26.3295C111.439 26.9162 111.064 27.3636 110.591 27.6719C110.117 27.9801 109.58 28.1342 108.98 28.1342C108.542 28.1342 108.179 28.0613 107.891 27.9155C107.603 27.7696 107.371 27.594 107.195 27.3885C107.023 27.1797 106.888 26.9825 106.792 26.7969H106.688V28H104.918ZM106.683 24.1818C106.683 24.6757 106.752 25.1082 106.892 25.4794C107.034 25.8506 107.238 26.1406 107.503 26.3494C107.772 26.5549 108.096 26.6577 108.478 26.6577C108.875 26.6577 109.208 26.5516 109.477 26.3395C109.745 26.1241 109.948 25.8307 110.083 25.4595C110.223 25.085 110.292 24.6591 110.292 24.1818C110.292 23.7079 110.224 23.2869 110.088 22.919C109.952 22.5511 109.75 22.2628 109.482 22.054C109.213 21.8452 108.879 21.7408 108.478 21.7408C108.093 21.7408 107.767 21.8419 107.498 22.044C107.23 22.2462 107.026 22.5296 106.887 22.8942C106.751 23.2588 106.683 23.688 106.683 24.1818ZM119.132 22.3821L117.492 22.5611C117.445 22.3954 117.364 22.2396 117.248 22.0938C117.135 21.9479 116.983 21.8303 116.791 21.7408C116.598 21.6513 116.363 21.6065 116.085 21.6065C115.71 21.6065 115.395 21.6877 115.14 21.8501C114.888 22.0125 114.764 22.223 114.767 22.4815C114.764 22.7036 114.845 22.8842 115.011 23.0234C115.18 23.1626 115.458 23.277 115.846 23.3665L117.149 23.6449C117.871 23.8007 118.408 24.0476 118.759 24.3857C119.114 24.7237 119.293 25.1662 119.296 25.7131C119.293 26.1937 119.152 26.6179 118.874 26.9858C118.599 27.3504 118.216 27.6354 117.725 27.8409C117.235 28.0464 116.671 28.1491 116.035 28.1491C115.1 28.1491 114.348 27.9536 113.778 27.5625C113.208 27.1681 112.868 26.6196 112.759 25.9169L114.514 25.7479C114.593 26.0926 114.762 26.3527 115.021 26.5284C115.279 26.7041 115.616 26.7919 116.03 26.7919C116.458 26.7919 116.801 26.7041 117.059 26.5284C117.321 26.3527 117.452 26.1357 117.452 25.8771C117.452 25.6584 117.367 25.4777 117.198 25.3352C117.033 25.1927 116.774 25.0833 116.423 25.0071L115.12 24.7337C114.388 24.5812 113.846 24.3243 113.494 23.9631C113.143 23.5985 112.969 23.1378 112.972 22.581C112.969 22.1103 113.097 21.7027 113.355 21.358C113.617 21.0099 113.98 20.7415 114.444 20.5526C114.911 20.3603 115.45 20.2642 116.06 20.2642C116.955 20.2642 117.659 20.4548 118.173 20.8359C118.69 21.2171 119.01 21.7325 119.132 22.3821Z" fill="black"/>
<path d="M15.9477 11.0984L19.6265 18.6247L26.5391 15.5115L23.4043 26.3537L15.7271 26.7649L10.652 17.7181L15.9477 11.0984M16.4003 7L8.92914 16.339L8 17.5009L8.72747 18.7981L13.8025 27.8449L14.474 29.0421L15.8453 28.9688L23.5225 28.5577L25.0887 28.4741L25.5239 26.9675L28.6588 16.1252L29.9842 11.5406L25.6324 13.5007L20.6704 15.7348L17.9303 10.1297L16.4003 7Z" fill="black"/>
<path d="M37.6605 13V7.54545H38.8892V8.4723H38.9531C39.0668 8.1598 39.255 7.91596 39.5178 7.74077C39.7805 7.56321 40.0942 7.47443 40.4588 7.47443C40.8281 7.47443 41.1394 7.56439 41.3928 7.74432C41.6484 7.92187 41.8284 8.16454 41.9325 8.4723H41.9893C42.1101 8.16927 42.3137 7.92779 42.6001 7.74787C42.889 7.56558 43.2311 7.47443 43.6264 7.47443C44.1283 7.47443 44.5379 7.63305 44.8551 7.95028C45.1723 8.26752 45.331 8.73035 45.331 9.33878V13H44.0419V9.53764C44.0419 9.1991 43.9519 8.9517 43.772 8.79545C43.5921 8.63684 43.3719 8.55753 43.1115 8.55753C42.8014 8.55753 42.5587 8.65459 42.3835 8.84872C42.2107 9.04048 42.1243 9.29025 42.1243 9.59801V13H40.8636V9.48438C40.8636 9.20265 40.7784 8.97775 40.608 8.80966C40.4399 8.64157 40.2197 8.55753 39.9474 8.55753C39.7628 8.55753 39.5947 8.60488 39.4432 8.69957C39.2917 8.7919 39.1709 8.9233 39.081 9.09375C38.991 9.26184 38.946 9.45833 38.946 9.68324V13H37.6605ZM47.8047 13.1101C47.4591 13.1101 47.1478 13.0485 46.8708 12.9254C46.5962 12.8 46.3784 12.6153 46.2174 12.3714C46.0587 12.1276 45.9794 11.8269 45.9794 11.4695C45.9794 11.1617 46.0363 10.9072 46.1499 10.706C46.2635 10.5047 46.4186 10.3438 46.6151 10.223C46.8116 10.1023 47.0329 10.0111 47.2792 9.94957C47.5277 9.88565 47.7846 9.83949 48.0498 9.81108C48.3694 9.77794 48.6286 9.74834 48.8275 9.7223C49.0263 9.69389 49.1707 9.65128 49.2607 9.59446C49.353 9.53527 49.3992 9.44413 49.3992 9.32102V9.29972C49.3992 9.0322 49.3199 8.82505 49.1613 8.67827C49.0026 8.53149 48.7742 8.4581 48.4759 8.4581C48.161 8.4581 47.9113 8.52675 47.7266 8.66406C47.5443 8.80137 47.4212 8.96354 47.3573 9.15057L46.157 8.98011C46.2517 8.64867 46.4079 8.37169 46.6257 8.14915C46.8435 7.92424 47.1099 7.75616 47.4248 7.64489C47.7396 7.53125 48.0876 7.47443 48.4688 7.47443C48.7316 7.47443 48.9932 7.50521 49.2536 7.56676C49.514 7.62831 49.7519 7.73011 49.9674 7.87216C50.1828 8.01184 50.3556 8.20241 50.4858 8.44389C50.6184 8.68537 50.6847 8.98722 50.6847 9.34943V13H49.4489V12.2507H49.4063C49.3282 12.4022 49.2181 12.5443 49.076 12.6768C48.9364 12.8071 48.76 12.9124 48.5469 12.9929C48.3362 13.071 48.0888 13.1101 47.8047 13.1101ZM48.1385 12.1655C48.3966 12.1655 48.6203 12.1146 48.8097 12.0128C48.9991 11.9086 49.1447 11.7713 49.2465 11.6009C49.3507 11.4304 49.4027 11.2446 49.4027 11.0433V10.4006C49.3625 10.4337 49.2938 10.4645 49.1968 10.4929C49.1021 10.5213 48.9955 10.5462 48.8772 10.5675C48.7588 10.5888 48.6416 10.6077 48.5256 10.6243C48.4096 10.6409 48.309 10.6551 48.2238 10.6669C48.032 10.6929 47.8604 10.7356 47.7088 10.7947C47.5573 10.8539 47.4378 10.9368 47.3502 11.0433C47.2626 11.1475 47.2188 11.2824 47.2188 11.4482C47.2188 11.6849 47.3052 11.8636 47.478 11.9844C47.6508 12.1051 47.871 12.1655 48.1385 12.1655ZM53.6015 13.0959C53.173 13.0959 52.7894 12.9858 52.4509 12.7656C52.1123 12.5455 51.8448 12.2259 51.6483 11.8068C51.4518 11.3878 51.3536 10.8788 51.3536 10.2798C51.3536 9.67377 51.453 9.16241 51.6519 8.74574C51.8531 8.3267 52.1242 8.01065 52.4651 7.79759C52.806 7.58215 53.186 7.47443 53.605 7.47443C53.9246 7.47443 54.1874 7.52888 54.3934 7.63778C54.5993 7.74432 54.7627 7.87334 54.8834 8.02486C55.0042 8.17401 55.0977 8.31487 55.164 8.44744H55.2172V5.72727H56.5063V13H55.2421V12.1406H55.164C55.0977 12.2732 55.0018 12.4141 54.8763 12.5632C54.7508 12.71 54.5851 12.8355 54.3792 12.9396C54.1732 13.0438 53.914 13.0959 53.6015 13.0959ZM53.9601 12.0412C54.2324 12.0412 54.4644 11.9678 54.6561 11.821C54.8479 11.6719 54.9935 11.4647 55.0929 11.1996C55.1924 10.9344 55.2421 10.6255 55.2421 10.2727C55.2421 9.91998 55.1924 9.6134 55.0929 9.35298C54.9959 9.09257 54.8515 8.89015 54.6597 8.74574C54.4703 8.60133 54.2371 8.52912 53.9601 8.52912C53.6737 8.52912 53.4346 8.60369 53.2428 8.75284C53.051 8.90199 52.9066 9.10795 52.8096 9.37074C52.7125 9.63352 52.664 9.93419 52.664 10.2727C52.664 10.6136 52.7125 10.9179 52.8096 11.1854C52.909 11.4505 53.0546 11.66 53.2463 11.8139C53.4405 11.9654 53.6784 12.0412 53.9601 12.0412ZM59.8909 13.1065C59.344 13.1065 58.8717 12.9929 58.474 12.7656C58.0786 12.536 57.7744 12.2116 57.5614 11.7926C57.3483 11.3712 57.2418 10.8752 57.2418 10.3047C57.2418 9.74361 57.3483 9.25118 57.5614 8.82741C57.7768 8.40128 58.0775 8.06984 58.4634 7.8331C58.8492 7.59399 59.3026 7.47443 59.8234 7.47443C60.1596 7.47443 60.4768 7.52888 60.7751 7.63778C61.0758 7.74432 61.341 7.91004 61.5706 8.13494C61.8026 8.35985 61.9849 8.64631 62.1175 8.99432C62.25 9.33996 62.3163 9.75189 62.3163 10.2301V10.6243H57.8455V9.75781H61.0841C61.0817 9.5116 61.0285 9.29261 60.9243 9.10085C60.8201 8.90672 60.6745 8.75402 60.4875 8.64276C60.3028 8.53149 60.0874 8.47585 59.8412 8.47585C59.5784 8.47585 59.3476 8.53977 59.1487 8.66761C58.9499 8.79309 58.7948 8.95881 58.6835 9.16477C58.5746 9.36837 58.519 9.59209 58.5166 9.83594V10.5923C58.5166 10.9096 58.5746 11.1818 58.6906 11.4091C58.8066 11.634 58.9688 11.8068 59.1771 11.9276C59.3855 12.0459 59.6293 12.1051 59.9087 12.1051C60.0957 12.1051 60.265 12.0791 60.4165 12.027C60.568 11.9725 60.6994 11.8932 60.8107 11.7891C60.9219 11.6849 61.006 11.5559 61.0628 11.402L62.2631 11.5369C62.1873 11.8542 62.0429 12.1312 61.8298 12.3679C61.6191 12.6023 61.3492 12.7846 61.0202 12.9148C60.6911 13.0426 60.3147 13.1065 59.8909 13.1065ZM65.1412 13V5.72727H66.4267V8.44744H66.4799C66.5462 8.31487 66.6397 8.17401 66.7605 8.02486C66.8812 7.87334 67.0446 7.74432 67.2505 7.63778C67.4565 7.52888 67.7193 7.47443 68.0389 7.47443C68.4603 7.47443 68.8403 7.58215 69.1788 7.79759C69.5197 8.01065 69.7896 8.3267 69.9885 8.74574C70.1897 9.16241 70.2903 9.67377 70.2903 10.2798C70.2903 10.8788 70.1921 11.3878 69.9956 11.8068C69.7991 12.2259 69.5315 12.5455 69.193 12.7656C68.8545 12.9858 68.4709 13.0959 68.0424 13.0959C67.7299 13.0959 67.4707 13.0438 67.2647 12.9396C67.0588 12.8355 66.8931 12.71 66.7676 12.5632C66.6445 12.4141 66.5486 12.2732 66.4799 12.1406H66.4054V13H65.1412ZM66.4018 10.2727C66.4018 10.6255 66.4515 10.9344 66.551 11.1996C66.6528 11.4647 66.7984 11.6719 66.9877 11.821C67.1795 11.9678 67.4115 12.0412 67.6838 12.0412C67.9679 12.0412 68.2058 11.9654 68.3975 11.8139C68.5893 11.66 68.7337 11.4505 68.8308 11.1854C68.9302 10.9179 68.9799 10.6136 68.9799 10.2727C68.9799 9.93419 68.9314 9.63352 68.8343 9.37074C68.7373 9.10795 68.5929 8.90199 68.4011 8.75284C68.2093 8.60369 67.9702 8.52912 67.6838 8.52912C67.4092 8.52912 67.176 8.60133 66.9842 8.74574C66.7924 8.89015 66.6468 9.09257 66.5474 9.35298C66.4503 9.6134 66.4018 9.91998 66.4018 10.2727ZM71.5966 15.0455C71.4214 15.0455 71.2593 15.0313 71.1101 15.0028C70.9633 14.9768 70.8462 14.946 70.7586 14.9105L71.0569 13.9091C71.2439 13.9635 71.4108 13.9896 71.5576 13.9872C71.7043 13.9848 71.8334 13.9387 71.9446 13.8487C72.0583 13.7611 72.1542 13.6143 72.2323 13.4084L72.3424 13.1136L70.3644 7.54545H71.728L72.9851 11.6648H73.0419L74.3026 7.54545H75.6698L73.4858 13.6605C73.384 13.9493 73.2491 14.1967 73.081 14.4027C72.9129 14.611 72.7069 14.7696 72.4631 14.8786C72.2216 14.9898 71.9328 15.0455 71.5966 15.0455Z" fill="#AAAAAA"/>
</svg>
